<svg viewBox="0 0 70 30" fill="none" xmlns="http://www.w3.org/2000/svg">
  <path d="M9.73 10.497h-.026a5.148 5.148 0 0 0-3.547-1.24 5.633 5.633 0 0 0-2.507.546 3.987 3.987 0 0 0-1.748 1.684l-.058-.83L0 9.9v12.282h2.037v-6.735a5.05 5.05 0 0 1 .566-2.52 3.53 3.53 0 0 1 1.465-1.446 4.24 4.24 0 0 1 1.902-.443 3.11 3.11 0 0 1 1.234.2c.392.153.746.385 1.042.68.565.598.848 1.55.848 2.86v7.391h2.037V14.07c0-1.555-.463-2.744-1.4-3.573ZM23.008 10.054a5.834 5.834 0 0 0-3.066-.784c-1.909.006-3.374.585-4.415 1.748s-1.555 2.77-1.555 4.833c.006 2.056.552 3.67 1.639 4.833 1.086 1.163 2.583 1.748 4.492 1.748a6.514 6.514 0 0 0 3.239-.714 5.217 5.217 0 0 0 2.024-2.05l-1.696-.887a2.496 2.496 0 0 1-1.254 1.395 4.962 4.962 0 0 1-2.313.482 3.942 3.942 0 0 1-2.847-1.06c-.733-.707-1.157-1.704-1.28-2.989h9.551c.07-.47.103-.945.103-1.42a6.712 6.712 0 0 0-.656-3.014 5.09 5.09 0 0 0-1.966-2.121Zm-7.012 4.756a4.453 4.453 0 0 1 1.253-2.783v-.007c.36-.334.784-.59 1.247-.758a3.685 3.685 0 0 1 1.446-.219c.476-.019.945.058 1.382.232.437.173.842.437 1.176.771a4.587 4.587 0 0 1 1.163 2.77h-7.667v-.006ZM39.01 11.03c-1.092-1.163-2.59-1.748-4.492-1.748-1.902 0-3.4.585-4.492 1.748-1.093 1.164-1.64 2.777-1.64 4.833 0 2.057.547 3.67 1.64 4.833 1.092 1.164 2.59 1.748 4.492 1.748 1.902 0 3.4-.584 4.492-1.748 1.093-1.163 1.64-2.77 1.64-4.833s-.547-3.67-1.64-4.832Zm-1.471 8.368a4.111 4.111 0 0 1-1.376.958 4.084 4.084 0 0 1-1.639.334 4.222 4.222 0 0 1-1.638-.334 4.176 4.176 0 0 1-1.376-.958c-.72-.861-1.086-2.037-1.086-3.541s.36-2.686 1.086-3.541a4.111 4.111 0 0 1 1.376-.958 4.086 4.086 0 0 1 1.638-.334 4.15 4.15 0 0 1 3.014 1.292c.727.861 1.093 2.044 1.093 3.541 0 1.498-.373 2.686-1.092 3.541Z" fill="#000"/>
  <path d="M68.657 3.19 66.343.806a2.659 2.659 0 0 0-4.004.218l-6.683 8.612-4.86-6.227c-1.014-1.299-3.058-1.029-3.694.5l-1.157 2.777a2.654 2.654 0 0 0 .289 2.564l4.743 6.652-4.19 5.63a2.498 2.498 0 0 0-.097 2.84l1.26 1.948a2.492 2.492 0 0 0 3.997.25l3.631-4.331 4.949 6.684a2.659 2.659 0 0 0 3.361.777l2.61-1.356a2.657 2.657 0 0 0 .854-4.004l-6.497-8.22 7.924-9.37a2.652 2.652 0 0 0-.122-3.56ZM67.64 5.786l-8.54 10.097a.33.33 0 0 0-.007.418l7.089 8.958a1.17 1.17 0 0 1-.373 1.755L63.2 28.37a1.16 1.16 0 0 1-1.471-.34l-5.823-7.867a.33.33 0 0 0-.52-.013l-4.576 5.463a.998.998 0 0 1-1.6-.096l-1.26-1.948a.997.997 0 0 1 .038-1.137l4.698-6.311a.338.338 0 0 0 .007-.392l-5.232-7.34a1.163 1.163 0 0 1-.128-1.118l1.157-2.776a.666.666 0 0 1 1.137-.155l5.771 7.391a.332.332 0 0 0 .527 0l7.597-9.794c.43-.56 1.26-.604 1.754-.097l2.314 2.385a1.17 1.17 0 0 1 .051 1.561Z" fill="#00E599"/>
</svg>
