<svg viewBox="0 0 75 33" fill="none" xmlns="http://www.w3.org/2000/svg">
  <path d="M.234 8.456v16.562l10.767 3.857V12.169l11.612-4.27-10.54-3.774L.234 8.456Z" fill="#00E599"/>
  <path d="M11.867 12.787v8.93l10.746 3.837V8.807l-10.746 3.98Z" fill="#00AF92"/>
  <path d="M40.475 10.749V23h-2.358l-4.733-7.722-1.188-2.172h-.019l.075 1.986V23h-1.82V10.749h2.34l4.714 7.703 1.207 2.21h.018l-.074-2.006V10.75h1.838Zm7.304 12.437c-.928 0-1.745-.192-2.45-.576a4.084 4.084 0 0 1-1.652-1.652c-.384-.73-.576-1.596-.576-2.599 0-1.002.192-1.862.576-2.58.396-.73.94-1.287 1.633-1.67.693-.384 1.479-.576 2.357-.576.904 0 1.671.186 2.302.557a3.728 3.728 0 0 1 1.448 1.522c.334.644.501 1.374.501 2.19 0 .223-.006.434-.018.632-.013.198-.031.37-.056.52h-7.462V17.43h6.59l-.984.297c0-.841-.21-1.485-.631-1.93-.421-.458-.996-.687-1.727-.687-.532 0-.996.124-1.392.371-.396.248-.699.619-.91 1.114-.21.483-.315 1.077-.315 1.782 0 .693.111 1.28.334 1.763.223.483.538.848.947 1.096.408.247.89.37 1.448.37.619 0 1.12-.117 1.503-.352.384-.235.687-.563.91-.984l1.578.743a3.78 3.78 0 0 1-.91 1.17c-.371.321-.817.569-1.336.742-.52.173-1.09.26-1.708.26Zm10.676-9.653c.903 0 1.701.192 2.394.576.693.383 1.232.94 1.615 1.67.396.718.594 1.578.594 2.58 0 1.003-.198 1.869-.594 2.6a3.997 3.997 0 0 1-1.615 1.651c-.693.384-1.49.576-2.394.576-.904 0-1.702-.192-2.395-.576a4.116 4.116 0 0 1-1.633-1.652c-.396-.73-.594-1.596-.594-2.599 0-1.002.198-1.862.594-2.58.396-.73.94-1.287 1.633-1.67.693-.384 1.491-.576 2.395-.576Zm0 1.56c-.557 0-1.034.13-1.43.39-.383.247-.68.612-.89 1.094-.211.483-.316 1.077-.316 1.782 0 .693.105 1.287.315 1.782.21.483.508.854.891 1.114.396.248.873.371 1.43.371.557 0 1.027-.123 1.41-.37.384-.26.681-.632.891-1.115.21-.495.316-1.089.316-1.782 0-.705-.105-1.299-.316-1.782-.21-.482-.507-.847-.89-1.095-.384-.26-.854-.39-1.411-.39Zm8.115-1.374 2.617 3.972.371.056L73.326 23H70.97l-2.729-4.084-.427-.148-3.638-5.05h2.395Zm6.7 0-3.638 4.975-.408-.02L66.254 23H63.99l3.954-5.29.39.037 2.655-4.028h2.283Z" fill="#000"/>
</svg>
